<svg width="659" height="63" viewBox="0 0 659 63" fill="none" xmlns="http://www.w3.org/2000/svg">
<path d="M119.814 21.5758C122.628 20.5054 124.082 17.3191 122.514 14.7484C120.502 11.4484 117.853 8.55904 114.703 6.25832C110.078 2.87994 104.572 0.915914 98.8533 0.604377C93.1343 0.292841 87.4478 1.64718 82.4833 4.50318C79.9305 5.97175 77.625 7.80494 75.6331 9.93293L75.5275 9.87258C75.5275 9.87258 59.3412 26.9923 49.497 35.9071C45.6591 39.3827 39.9632 44.3516 38.0365 46.0283C37.108 46.6113 36.1259 47.114 35.1003 47.5285C31.7464 48.884 28.0712 49.2374 24.5203 48.5457C20.9695 47.8541 17.6957 46.1471 15.0957 43.6318C13.811 42.389 12.7182 40.9752 11.8436 39.4375C10.3551 36.8201 7.49335 34.9207 4.55851 35.5939C1.62368 36.2671 -0.254721 39.2231 0.944648 41.985C2.48428 45.5304 4.71076 48.7566 7.51407 51.4686C11.6305 55.4509 16.8138 58.1535 22.4355 59.2486C28.0573 60.3436 33.876 59.7842 39.1862 57.6381C42.551 56.2782 45.62 54.3182 48.2522 51.8704L48.4271 51.9551L85.3682 15.7203C86.1652 15.0648 87.0185 14.4738 87.9206 13.9548C91.0563 12.1509 94.648 11.2954 98.2602 11.4922C101.872 11.689 105.35 12.9295 108.271 15.0634C109.714 16.1177 110.991 17.3677 112.069 18.7706C113.903 21.1584 116.999 22.6462 119.814 21.5758Z" fill="white"/>
<path d="M36.1529 1.71817C39.0503 2.53787 40.1497 5.86312 38.8132 8.5613C37.4767 11.2595 34.1948 12.2727 31.2263 11.7683C30.1529 11.586 29.0621 11.4971 27.9663 11.5047C25.0441 11.5248 22.1674 12.2296 19.5669 13.5626C16.9664 14.8956 14.7145 16.8196 12.9921 19.1802C12.3462 20.0655 11.7815 21.0029 11.3028 21.9809C9.97909 24.6853 7.2404 26.7582 4.26954 26.2679C1.29867 25.7776 -0.759057 22.9436 0.26707 20.1128C1.21576 17.4956 2.53205 15.0167 4.18361 12.7532C6.91063 9.01571 10.4758 5.96953 14.593 3.8591C18.7102 1.74868 23.2648 0.632771 27.8913 0.600938C30.6932 0.581659 33.4743 0.960328 36.1529 1.71817Z" fill="white"/>
<path d="M54.8424 15.9348C54.8424 19.2831 52.1281 21.9974 48.7798 21.9974C45.4315 21.9974 42.7172 19.2831 42.7172 15.9348C42.7172 12.5865 45.4315 9.87221 48.7798 9.87221C52.1281 9.87221 54.8424 12.5865 54.8424 15.9348Z" fill="white"/>
<path d="M87.2165 58.8155C84.3192 57.9958 83.2197 54.6705 84.5562 51.9724C85.8927 49.2742 89.1746 48.261 92.1431 48.7653C93.2166 48.9477 94.3073 49.0365 95.4031 49.029C98.3253 49.0089 101.202 48.3041 103.803 46.9711C106.403 45.6381 108.655 43.7141 110.377 41.3534C111.023 40.4682 111.588 39.5308 112.067 38.5528C113.39 35.8483 116.129 33.7754 119.1 34.2657C122.071 34.756 124.128 37.5901 123.102 40.4209C122.154 43.0381 120.837 45.517 119.186 47.7805C116.459 51.518 112.894 54.5641 108.776 56.6746C104.659 58.785 100.105 59.9009 95.4781 59.9327C92.6762 59.952 89.8952 59.5733 87.2165 58.8155Z" fill="white"/>
<path d="M68.5277 44.6021C68.5277 41.2539 71.242 38.5396 74.5903 38.5396C77.9386 38.5396 80.6529 41.2539 80.6529 44.6021C80.6529 47.9504 77.9386 50.6647 74.5903 50.6647C71.242 50.6647 68.5277 47.9504 68.5277 44.6021Z" fill="white"/>
<path d="M147.719 7.17851H169.034C173.582 7.17851 176.924 8.205 179.057 10.258C181.231 12.311 182.318 14.9678 182.318 18.2284C182.318 20.5632 181.774 22.596 180.687 24.327C179.641 26.0579 178.01 27.3662 175.796 28.2518V28.8556C178.413 29.6204 180.345 30.9287 181.593 32.7804C182.881 34.5919 183.525 36.7455 183.525 39.2413C183.525 42.5422 182.438 45.2191 180.265 47.2721C178.131 49.2848 174.79 50.2912 170.241 50.2912H147.719V7.17851ZM168.49 24.8704C170.302 24.8704 171.63 24.3873 172.475 23.4212C173.361 22.4149 173.804 21.167 173.804 19.6776C173.804 18.2284 173.361 17.061 172.475 16.1754C171.63 15.2898 170.302 14.847 168.49 14.847H156.293V24.8704H168.49ZM169.154 42.5623C170.966 42.5623 172.314 42.0792 173.2 41.1131C174.086 40.1068 174.528 38.879 174.528 37.4298C174.528 35.9404 174.086 34.773 173.2 33.9277C172.314 33.0421 170.926 32.5993 169.034 32.5993H156.293V42.5623H169.154Z" fill="white"/>
<path d="M205.073 51.1365C199.88 51.1365 195.794 49.7075 192.815 46.8494C189.836 43.9913 188.347 39.9457 188.347 34.7126C188.347 29.399 189.856 25.3333 192.876 22.5155C195.935 19.6977 200.001 18.2888 205.073 18.2888C208.213 18.2888 210.95 18.9127 213.285 20.1606C215.619 21.4085 217.411 23.1998 218.659 25.5346C219.947 27.8694 220.591 30.6469 220.591 33.8673C220.591 34.8737 220.53 35.9002 220.41 36.9468H196.68C196.961 39.4828 197.847 41.4553 199.336 42.8642C200.826 44.2329 202.718 44.9172 205.012 44.9172C206.381 44.9172 207.629 44.6354 208.756 44.0718C209.883 43.5083 210.769 42.7233 211.413 41.7169H219.564C218.638 44.6153 216.908 46.9098 214.371 48.6005C211.835 50.2912 208.736 51.1365 205.073 51.1365ZM212.258 31.3313C211.936 29.1173 211.071 27.4266 209.662 26.2592C208.253 25.0918 206.582 24.5081 204.65 24.5081C202.758 24.5081 201.067 25.1119 199.578 26.3196C198.129 27.5272 197.223 29.1978 196.861 31.3313H212.258Z" fill="white"/>
<path d="M230.598 61.7637L235.368 50.2308L222.446 19.1341H231.685L239.836 40.3282H240.44L248.591 19.1341H257.347L239.655 61.7637H230.598Z" fill="white"/>
<path d="M276.191 51.1365C271.079 51.1365 266.953 49.7477 263.813 46.9702C260.713 44.1523 259.164 40.0665 259.164 34.7126C259.164 29.3588 260.713 25.2931 263.813 22.5155C266.953 19.6977 271.079 18.2888 276.191 18.2888C281.384 18.2888 285.51 19.6776 288.569 22.4551C291.669 25.2327 293.219 29.3185 293.219 34.7126C293.219 40.1068 291.669 44.1926 288.569 46.9702C285.51 49.7477 281.384 51.1365 276.191 51.1365ZM276.252 44.4945C278.828 44.4945 280.861 43.6693 282.35 42.0188C283.88 40.3684 284.645 37.933 284.645 34.7126C284.645 31.4923 283.88 29.0569 282.35 27.4064C280.82 25.756 278.747 24.9308 276.131 24.9308C273.514 24.9308 271.461 25.756 269.972 27.4064C268.482 29.0569 267.738 31.4923 267.738 34.7126C267.738 37.933 268.482 40.3684 269.972 42.0188C271.502 43.6693 273.595 44.4945 276.252 44.4945Z" fill="white"/>
<path d="M299.258 32.9616C299.258 27.97 300.627 24.2867 303.364 21.9117C306.102 19.4964 310.006 18.2888 315.079 18.2888C325.625 18.2888 330.899 23.1395 330.899 32.8408V50.2912H322.566V32.8408C322.566 30.3853 321.922 28.5336 320.634 27.2857C319.386 26.0378 317.534 25.4138 315.079 25.4138C312.623 25.4138 310.771 26.0579 309.523 27.3461C308.276 28.5939 307.652 30.4658 307.652 32.9616V50.2912H299.258V32.9616Z" fill="white"/>
<path d="M351.188 51.1365C348.612 51.1365 346.237 50.5327 344.063 49.3251C341.889 48.0772 340.159 46.2255 338.87 43.7699C337.582 41.2741 336.938 38.255 336.938 34.7126C336.938 31.1702 337.582 28.1713 338.87 25.7157C340.159 23.2602 341.889 21.4085 344.063 20.1606C346.237 18.9127 348.612 18.2888 351.188 18.2888C353.563 18.2888 355.556 18.6913 357.166 19.4964C358.817 20.3015 360.246 21.5494 361.453 23.2401H362.057V7.17851H370.39V50.2912H362.661L362.057 46.1248H361.453C360.246 47.8155 358.817 49.0835 357.166 49.9289C355.516 50.734 353.523 51.1365 351.188 51.1365ZM353.845 44.253C356.341 44.253 358.354 43.4076 359.883 41.7169C361.453 39.986 362.238 37.6512 362.238 34.7126C362.238 31.7741 361.453 29.4594 359.883 27.7687C358.354 26.0378 356.341 25.1723 353.845 25.1723C351.349 25.1723 349.337 25.9975 347.807 27.648C346.277 29.2984 345.512 31.6533 345.512 34.7126C345.512 37.772 346.277 40.1269 347.807 41.7773C349.337 43.4278 351.349 44.253 353.845 44.253Z" fill="white"/>
<path d="M378.879 7.17851H396.087C402.126 7.17851 406.453 8.50691 409.069 11.1637C411.726 13.8205 413.055 17.3428 413.055 21.7305C413.055 26.1183 411.726 29.6607 409.069 32.3577C406.413 35.0146 402.085 36.343 396.087 36.343H387.694V50.2912H378.879V7.17851ZM395.423 28.3725C398.241 28.3725 400.334 27.8291 401.703 26.7422C403.112 25.6554 403.816 23.9848 403.816 21.7305C403.816 17.3428 401.019 15.1489 395.423 15.1489H387.694V28.3725H395.423Z" fill="white"/>
<path d="M419.122 19.1341H426.911L427.515 23.9043H428.119C429.246 22.2538 430.635 21.0462 432.285 20.2814C433.976 19.5165 436.19 19.1341 438.927 19.1341V26.863C438.404 26.7825 437.639 26.7422 436.633 26.7422C430.554 26.7422 427.515 29.9827 427.515 36.4637V50.2912H419.122V19.1341Z" fill="white"/>
<path d="M458.668 51.1365C453.475 51.1365 449.389 49.7075 446.41 46.8494C443.432 43.9913 441.942 39.9457 441.942 34.7126C441.942 29.399 443.452 25.3333 446.471 22.5155C449.53 19.6977 453.596 18.2888 458.668 18.2888C461.808 18.2888 464.545 18.9127 466.88 20.1606C469.215 21.4085 471.006 23.1998 472.254 25.5346C473.542 27.8694 474.186 30.6469 474.186 33.8673C474.186 34.8737 474.126 35.9002 474.005 36.9468H450.275C450.557 39.4828 451.442 41.4553 452.932 42.8642C454.421 44.2329 456.313 44.9172 458.608 44.9172C459.976 44.9172 461.224 44.6354 462.351 44.0718C463.478 43.5083 464.364 42.7233 465.008 41.7169H473.16C472.234 44.6153 470.503 46.9098 467.967 48.6005C465.431 50.2912 462.331 51.1365 458.668 51.1365ZM465.853 31.3313C465.531 29.1173 464.666 27.4266 463.257 26.2592C461.848 25.0918 460.178 24.5081 458.245 24.5081C456.353 24.5081 454.663 25.1119 453.173 26.3196C451.724 27.5272 450.818 29.1978 450.456 31.3313H465.853Z" fill="white"/>
<path d="M493.492 51.1365C488.42 51.1365 484.736 50.271 482.442 48.5401C480.188 46.7689 479.061 44.5951 479.061 42.0188C479.061 41.6968 479.101 41.3345 479.181 40.932H487.454V41.2339C487.454 42.3208 487.997 43.2064 489.084 43.8907C490.211 44.575 491.68 44.9172 493.492 44.9172C495.303 44.9172 496.752 44.6354 497.839 44.0718C498.966 43.468 499.53 42.5824 499.53 41.415C499.53 40.4087 498.966 39.7042 497.839 39.3017C496.712 38.8589 494.901 38.4362 492.405 38.0336C489.748 37.6311 487.534 37.1682 485.763 36.6449C483.992 36.1216 482.462 35.1957 481.174 33.8673C479.926 32.5389 479.302 30.6872 479.302 28.3122C479.302 26.2994 479.866 24.5484 480.993 23.0589C482.16 21.5293 483.79 20.3619 485.884 19.5568C487.977 18.7114 490.392 18.2888 493.13 18.2888C497.799 18.2888 501.321 19.1341 503.696 20.8248C506.071 22.5155 507.259 24.7899 507.259 27.648C507.259 28.0103 507.239 28.292 507.199 28.4933H498.926C498.926 28.4531 498.926 28.4128 498.926 28.3725C498.966 28.292 498.987 28.1914 498.987 28.0706C498.987 27.0643 498.504 26.2189 497.537 25.5346C496.571 24.8503 495.102 24.5081 493.13 24.5081C489.426 24.5081 487.574 25.6554 487.574 27.9499C487.574 28.9965 488.138 29.7412 489.265 30.184C490.433 30.5865 492.264 30.969 494.76 31.3313C497.497 31.7741 499.711 32.2571 501.402 32.7804C503.133 33.2635 504.622 34.1692 505.87 35.4976C507.158 36.7858 507.802 38.6173 507.802 40.9924C507.802 44.092 506.534 46.5676 503.998 48.4193C501.462 50.2308 497.96 51.1365 493.492 51.1365Z" fill="white"/>
<path d="M529.367 51.1365C524.174 51.1365 520.088 49.7075 517.109 46.8494C514.13 43.9913 512.641 39.9457 512.641 34.7126C512.641 29.399 514.15 25.3333 517.17 22.5155C520.229 19.6977 524.295 18.2888 529.367 18.2888C532.507 18.2888 535.244 18.9127 537.579 20.1606C539.913 21.4085 541.705 23.1998 542.953 25.5346C544.241 27.8694 544.885 30.6469 544.885 33.8673C544.885 34.8737 544.824 35.9002 544.704 36.9468H520.974C521.255 39.4828 522.141 41.4553 523.63 42.8642C525.12 44.2329 527.012 44.9172 529.306 44.9172C530.675 44.9172 531.923 44.6354 533.05 44.0718C534.177 43.5083 535.063 42.7233 535.707 41.7169H543.858C542.932 44.6153 541.202 46.9098 538.665 48.6005C536.129 50.2912 533.03 51.1365 529.367 51.1365ZM536.552 31.3313C536.23 29.1173 535.365 27.4266 533.956 26.2592C532.547 25.0918 530.876 24.5081 528.944 24.5081C527.052 24.5081 525.361 25.1119 523.872 26.3196C522.423 27.5272 521.517 29.1978 521.155 31.3313H536.552Z" fill="white"/>
<path d="M550.967 32.9616C550.967 27.97 552.336 24.2867 555.073 21.9117C557.81 19.4964 561.715 18.2888 566.787 18.2888C577.334 18.2888 582.607 23.1395 582.607 32.8408V50.2912H574.274V32.8408C574.274 30.3853 573.63 28.5336 572.342 27.2857C571.094 26.0378 569.242 25.4138 566.787 25.4138C564.331 25.4138 562.48 26.0579 561.232 27.3461C559.984 28.5939 559.36 30.4658 559.36 32.9616V50.2912H550.967V32.9616Z" fill="white"/>
<path d="M605.372 51.1365C600.341 51.1365 596.295 49.7477 593.236 46.9702C590.176 44.1523 588.647 40.0665 588.647 34.7126C588.647 29.3588 590.176 25.2931 593.236 22.5155C596.295 19.6977 600.341 18.2888 605.372 18.2888C607.908 18.2888 610.263 18.7517 612.437 19.6776C614.651 20.6034 616.462 21.9922 617.871 23.8439C619.321 25.6956 620.166 27.9499 620.407 30.6067H612.377C611.974 28.6745 611.109 27.2454 609.78 26.3196C608.492 25.3937 607.003 24.9308 605.312 24.9308C602.856 24.9308 600.884 25.7761 599.395 27.4668C597.945 29.1173 597.221 31.5325 597.221 34.7126C597.221 37.8928 597.945 40.3282 599.395 42.0188C600.884 43.6693 602.856 44.4945 605.312 44.4945C607.003 44.4945 608.492 44.0316 609.78 43.1057C611.109 42.1396 611.974 40.7106 612.377 38.8186H620.407C620.166 41.4754 619.321 43.7297 617.871 45.5814C616.462 47.4331 614.651 48.8219 612.437 49.7477C610.263 50.6736 607.908 51.1365 605.372 51.1365Z" fill="white"/>
<path d="M641.842 51.1365C636.649 51.1365 632.563 49.7075 629.585 46.8494C626.606 43.9913 625.116 39.9457 625.116 34.7126C625.116 29.399 626.626 25.3333 629.645 22.5155C632.704 19.6977 636.77 18.2888 641.842 18.2888C644.982 18.2888 647.719 18.9127 650.054 20.1606C652.389 21.4085 654.18 23.1998 655.428 25.5346C656.716 27.8694 657.36 30.6469 657.36 33.8673C657.36 34.8737 657.3 35.9002 657.179 36.9468H633.449C633.731 39.4828 634.616 41.4553 636.106 42.8642C637.595 44.2329 639.487 44.9172 641.782 44.9172C643.15 44.9172 644.398 44.6354 645.525 44.0718C646.652 43.5083 647.538 42.7233 648.182 41.7169H656.334C655.408 44.6153 653.677 46.9098 651.141 48.6005C648.605 50.2912 645.505 51.1365 641.842 51.1365ZM649.028 31.3313C648.705 29.1173 647.84 27.4266 646.431 26.2592C645.022 25.0918 643.352 24.5081 641.419 24.5081C639.527 24.5081 637.837 25.1119 636.347 26.3196C634.898 27.5272 633.992 29.1978 633.63 31.3313H649.028Z" fill="white"/>
</svg>
