<svg xmlns="http://www.w3.org/2000/svg" width="190" height="36" viewBox="0 0 190 36" fill="none"><path fill-rule="evenodd" clip-rule="evenodd" d="M0 15.7188L14.3854 27.9801V35.6772L0 23.4158V15.7188Z" fill="#ECDC28"></path><path fill-rule="evenodd" clip-rule="evenodd" d="M28.7659 8.02344L14.3848 20.2848V27.9776L28.7659 15.7162V8.02344Z" fill="#E62600"></path><path fill-rule="evenodd" clip-rule="evenodd" d="M0 0.328125L14.3854 12.5895V20.2865L0 8.02514V0.328125Z" fill="#1A1A1A"></path><path d="M50.1073 14.6836V1.44023H54.9572C55.7418 1.44023 56.4014 1.51567 56.9359 1.66655C57.4705 1.81313 57.8994 2.03299 58.2227 2.32614C58.5504 2.61497 58.7832 2.9771 58.9211 3.41251C59.0634 3.84792 59.1345 4.35015 59.1345 4.9192C59.1345 5.41496 59.0742 5.83744 58.9535 6.18663C58.8371 6.53151 58.6776 6.8225 58.4749 7.0596C58.2723 7.29671 58.0352 7.48639 57.7636 7.62866C57.4963 7.76661 57.2097 7.87438 56.9036 7.95198C57.2312 7.96922 57.5589 8.03389 57.8865 8.14597C58.2141 8.25375 58.5073 8.4305 58.7659 8.67623C59.0289 8.91764 59.2423 9.23666 59.4061 9.63327C59.5699 10.0299 59.6518 10.5256 59.6518 11.1206C59.6518 11.7069 59.5786 12.2242 59.432 12.6725C59.2854 13.1165 59.0397 13.4873 58.6948 13.7848C58.3499 14.0822 57.8908 14.3064 57.3174 14.4573C56.7441 14.6082 56.0328 14.6836 55.1835 14.6836H50.1073ZM52.1054 12.97H54.9895C55.5499 12.97 56.0047 12.9355 56.3539 12.8665C56.7031 12.7975 56.9747 12.6876 57.1687 12.5367C57.3627 12.3815 57.4942 12.1811 57.5632 11.9353C57.6321 11.6853 57.6666 11.3814 57.6666 11.0236C57.6666 10.627 57.6214 10.2842 57.5308 9.99539C57.4403 9.70655 57.2916 9.46945 57.0846 9.28408C56.882 9.09439 56.6147 8.95429 56.2828 8.86375C55.9509 8.77322 55.5435 8.72796 55.0606 8.72796H52.1054V12.97ZM52.1054 3.14091V7.16953H54.7826C55.2007 7.16953 55.5607 7.13505 55.8625 7.06607C56.1642 6.9971 56.4121 6.88285 56.6061 6.72335C56.8001 6.55953 56.9424 6.34398 57.0329 6.0767C57.1278 5.80942 57.1752 5.47532 57.1752 5.07439C57.1752 4.71658 57.1428 4.41481 57.0782 4.16908C57.0135 3.92336 56.8928 3.72505 56.7161 3.57417C56.5436 3.42328 56.3065 3.31335 56.0047 3.24438C55.703 3.1754 55.3128 3.14091 54.8343 3.14091H52.1054ZM61.4114 14.6836V4.75107H63.3449V14.6836H61.4114ZM61.1656 2.06748C61.1656 1.90797 61.198 1.75924 61.2626 1.62129C61.3273 1.47903 61.4135 1.35616 61.5213 1.2527C61.6334 1.14492 61.7627 1.06086 61.9093 1.00051C62.0602 0.940152 62.2197 0.909975 62.3878 0.909975C62.5559 0.909975 62.7133 0.940152 62.8599 1.00051C63.0064 1.06086 63.1358 1.14492 63.2479 1.2527C63.3599 1.35616 63.4483 1.47903 63.513 1.62129C63.5776 1.75924 63.61 1.90797 63.61 2.06748C63.61 2.22698 63.5776 2.37787 63.513 2.52013C63.4483 2.65808 63.3599 2.77879 63.2479 2.88225C63.1358 2.98572 63.0064 3.06763 62.8599 3.12798C62.7133 3.18833 62.5559 3.21851 62.3878 3.21851C62.2197 3.21851 62.0602 3.18833 61.9093 3.12798C61.7627 3.06763 61.6334 2.98572 61.5213 2.88225C61.4135 2.77879 61.3273 2.65808 61.2626 2.52013C61.198 2.37787 61.1656 2.22698 61.1656 2.06748ZM67.4242 14.6836H65.4908V1.44023H67.4242V14.6836ZM73.3078 4.62174C73.6699 4.62174 73.9824 4.65192 74.2454 4.71227C74.5127 4.76831 74.7412 4.84376 74.9309 4.9386C75.1249 5.03344 75.2865 5.14121 75.4158 5.26192C75.5452 5.38263 75.6551 5.50765 75.7456 5.63698C75.8405 5.76631 75.9181 5.89348 75.9784 6.0185C76.0431 6.14352 76.1034 6.25776 76.1595 6.36122H76.2759V1.44023H78.2094V14.6836H76.3212V13.1381H76.1595C76.1034 13.2416 76.0409 13.358 75.972 13.4873C75.9073 13.6123 75.8275 13.7395 75.7327 13.8688C75.6379 13.9981 75.5236 14.1232 75.39 14.2439C75.2606 14.3646 75.099 14.4724 74.905 14.5672C74.711 14.662 74.4825 14.7375 74.2195 14.7935C73.9566 14.8496 73.6462 14.8776 73.2884 14.8776C72.6072 14.8776 72.008 14.7763 71.4907 14.5737C70.9734 14.3667 70.5401 14.0542 70.1909 13.636C69.8417 13.2135 69.5788 12.679 69.402 12.0323C69.2253 11.3857 69.1369 10.6205 69.1369 9.73673C69.1369 8.84867 69.2253 8.08347 69.402 7.44113C69.5831 6.79879 69.8482 6.26854 70.1974 5.85037C70.5509 5.43221 70.9863 5.12397 71.5036 4.92566C72.0252 4.72305 72.6266 4.62174 73.3078 4.62174ZM71.0898 9.71733C71.0898 10.295 71.1307 10.8037 71.2126 11.2434C71.2945 11.6788 71.4346 12.0453 71.6329 12.3427C71.8356 12.6359 72.105 12.8579 72.4413 13.0088C72.7818 13.1553 73.2086 13.2286 73.7216 13.2286C74.2174 13.2286 74.6291 13.1446 74.9567 12.9764C75.2844 12.804 75.5452 12.5647 75.7392 12.2587C75.9375 11.9483 76.0754 11.5775 76.153 11.1464C76.2349 10.7153 76.2759 10.239 76.2759 9.71733C76.2759 9.20001 76.2371 8.73011 76.1595 8.30764C76.0819 7.88085 75.9461 7.51657 75.7521 7.2148C75.5581 6.91303 75.2973 6.68024 74.9697 6.51642C74.642 6.34829 74.226 6.26423 73.7216 6.26423C73.2043 6.26423 72.7754 6.33751 72.4348 6.48409C72.0942 6.62635 71.8248 6.8419 71.6265 7.13074C71.4282 7.41957 71.2881 7.77954 71.2062 8.21064C71.1286 8.64174 71.0898 9.14397 71.0898 9.71733ZM82.4472 4.75107V10.836C82.4472 11.2542 82.4817 11.6055 82.5506 11.8901C82.6196 12.1746 82.7317 12.4031 82.8869 12.5755C83.0464 12.748 83.2555 12.8708 83.5141 12.9441C83.7728 13.0174 84.0918 13.054 84.4712 13.054C84.8247 13.054 85.1415 13.0109 85.4218 12.9247C85.702 12.8342 85.9391 12.6898 86.1331 12.4915C86.3314 12.2931 86.4823 12.0366 86.5857 11.7219C86.6892 11.4029 86.7409 11.0171 86.7409 10.5644L86.8056 4.75107H88.7455V14.6836H86.8444V12.9635H86.7409C86.6245 13.2265 86.4887 13.4722 86.3335 13.7007C86.1827 13.9249 85.993 14.121 85.7645 14.2891C85.536 14.453 85.2601 14.5823 84.9368 14.6771C84.6135 14.7677 84.2255 14.8129 83.7728 14.8129C83.2167 14.8129 82.7339 14.7483 82.3243 14.6189C81.9148 14.4896 81.5742 14.2784 81.3026 13.9852C81.0353 13.6921 80.837 13.3084 80.7077 12.8342C80.5784 12.3557 80.5137 11.7672 80.5137 11.0688V4.75107H82.4472ZM92.7441 4.75107V6.36769H92.867C92.9833 6.10472 93.1148 5.86546 93.2614 5.64991C93.4123 5.43436 93.5998 5.25114 93.824 5.10026C94.0482 4.94937 94.3198 4.83298 94.6388 4.75107C94.9578 4.66485 95.3436 4.62174 95.7963 4.62174C96.3869 4.62174 96.8934 4.6864 97.3159 4.81573C97.7427 4.94506 98.094 5.1563 98.3699 5.44945C98.6458 5.7426 98.8485 6.12843 98.9778 6.60695C99.1114 7.08547 99.1782 7.67177 99.1782 8.36584V14.6836H97.2448V8.59863C97.2448 8.15891 97.2103 7.79247 97.1413 7.49933C97.0766 7.20187 96.9624 6.96476 96.7986 6.78801C96.6391 6.60695 96.4235 6.47978 96.1519 6.40649C95.8846 6.3332 95.5462 6.29656 95.1367 6.29656C94.7185 6.29656 94.3629 6.33751 94.0697 6.41942C93.7766 6.49702 93.5373 6.63282 93.3519 6.82681C93.1666 7.01649 93.0308 7.27084 92.9446 7.58986C92.8626 7.90887 92.8217 8.30764 92.8217 8.78616V14.6836H90.8882V4.75107H92.7441ZM100.883 9.67853C100.883 8.80771 100.971 8.05544 101.148 7.42173C101.329 6.7837 101.594 6.25776 101.943 5.84391C102.293 5.43005 102.726 5.12397 103.243 4.92566C103.765 4.72305 104.366 4.62174 105.047 4.62174C105.409 4.62174 105.724 4.65192 105.991 4.71227C106.259 4.76831 106.489 4.84376 106.683 4.9386C106.877 5.03344 107.039 5.14121 107.168 5.26192C107.302 5.38263 107.414 5.50765 107.504 5.63698C107.599 5.76631 107.679 5.89348 107.744 6.0185C107.808 6.14352 107.869 6.25776 107.925 6.36122H108.067V4.75107H109.962V14.9035C109.962 15.6191 109.86 16.214 109.658 16.6882C109.46 17.1624 109.169 17.5396 108.785 17.8198C108.405 18.1044 107.938 18.3048 107.382 18.4212C106.826 18.5376 106.192 18.5958 105.48 18.5958C104.808 18.5958 104.232 18.5355 103.754 18.4148C103.28 18.294 102.879 18.1324 102.551 17.9298C102.228 17.7272 101.963 17.49 101.756 17.2185C101.553 16.9469 101.387 16.6623 101.258 16.3649L102.92 15.6794C103.006 15.8174 103.097 15.964 103.191 16.1192C103.29 16.2787 103.431 16.4252 103.612 16.5589C103.793 16.6968 104.032 16.8111 104.329 16.9016C104.627 16.9921 105.017 17.0374 105.5 17.0374C105.948 17.0374 106.332 17.0094 106.651 16.9533C106.97 16.8973 107.231 16.7874 107.433 16.6235C107.64 16.464 107.791 16.2399 107.886 15.951C107.985 15.6665 108.035 15.2914 108.035 14.8259V12.873H107.912C107.856 12.9764 107.793 13.0907 107.724 13.2157C107.66 13.3407 107.58 13.4657 107.485 13.5908C107.395 13.7115 107.282 13.83 107.149 13.9464C107.015 14.0585 106.851 14.1598 106.657 14.2503C106.463 14.3366 106.233 14.4055 105.965 14.4573C105.702 14.509 105.392 14.5349 105.034 14.5349C104.366 14.5349 103.773 14.4379 103.256 14.2439C102.743 14.0456 102.31 13.746 101.956 13.345C101.603 12.9441 101.335 12.4397 101.154 11.8319C100.973 11.2197 100.883 10.5019 100.883 9.67853ZM105.461 12.9312C105.961 12.9312 106.369 12.873 106.683 12.7566C107.002 12.6359 107.254 12.444 107.44 12.1811C107.625 11.9181 107.752 11.5797 107.821 11.1658C107.89 10.752 107.925 10.2476 107.925 9.65267C107.925 9.07068 107.89 8.5663 107.821 8.13951C107.752 7.71272 107.627 7.36137 107.446 7.08547C107.265 6.80526 107.015 6.59833 106.696 6.46469C106.377 6.33105 105.965 6.26423 105.461 6.26423C104.944 6.26423 104.515 6.33751 104.174 6.48409C103.838 6.62635 103.571 6.83974 103.372 7.12427C103.174 7.4088 103.034 7.7623 102.952 8.18477C102.874 8.60725 102.836 9.09655 102.836 9.65267C102.836 10.2217 102.877 10.7132 102.959 11.127C103.04 11.5366 103.181 11.8771 103.379 12.1487C103.581 12.416 103.851 12.6143 104.187 12.7436C104.523 12.8687 104.948 12.9312 105.461 12.9312ZM113.529 11.8513C113.589 12.097 113.664 12.3125 113.755 12.4979C113.846 12.679 113.971 12.832 114.13 12.957C114.29 13.0777 114.492 13.1704 114.738 13.2351C114.984 13.2955 115.292 13.3256 115.663 13.3256C116.059 13.3256 116.391 13.3062 116.658 13.2674C116.926 13.2243 117.139 13.151 117.299 13.0476C117.462 12.9441 117.579 12.804 117.648 12.6273C117.717 12.4505 117.751 12.2263 117.751 11.9547C117.751 11.7176 117.723 11.5301 117.667 11.3922C117.611 11.2499 117.525 11.1356 117.409 11.0494C117.292 10.9632 117.146 10.8964 116.969 10.849C116.796 10.7972 116.589 10.7455 116.348 10.6938L114.667 10.3252C114.201 10.2217 113.798 10.101 113.458 9.96306C113.117 9.82511 112.835 9.65051 112.61 9.43927C112.386 9.22803 112.22 8.97153 112.113 8.66976C112.005 8.36368 111.951 7.99509 111.951 7.56399C111.951 7.04236 112.031 6.59617 112.19 6.22543C112.35 5.85468 112.589 5.55076 112.908 5.31365C113.227 5.07655 113.626 4.90195 114.104 4.78987C114.583 4.67778 115.143 4.62174 115.785 4.62174C116.402 4.62174 116.926 4.68209 117.357 4.8028C117.788 4.92351 118.148 5.09595 118.437 5.32012C118.73 5.54429 118.963 5.81373 119.135 6.12843C119.308 6.43882 119.443 6.78801 119.543 7.176L117.79 7.48639C117.734 7.31826 117.669 7.15445 117.596 6.99494C117.527 6.83543 117.424 6.69317 117.286 6.56815C117.148 6.44313 116.962 6.34398 116.73 6.27069C116.497 6.1931 116.189 6.1543 115.805 6.1543C115.451 6.1543 115.152 6.17154 114.906 6.20603C114.66 6.24052 114.46 6.30518 114.305 6.40002C114.154 6.49486 114.046 6.62851 113.981 6.80095C113.917 6.96907 113.884 7.18893 113.884 7.46053C113.884 7.71056 113.912 7.90671 113.968 8.04898C114.029 8.19124 114.121 8.30548 114.246 8.3917C114.376 8.47361 114.54 8.54043 114.738 8.59216C114.936 8.63958 115.171 8.69563 115.443 8.76029L117.021 9.12241C117.478 9.22588 117.874 9.34443 118.21 9.47807C118.551 9.6074 118.833 9.77337 119.058 9.97599C119.286 10.1786 119.456 10.4286 119.568 10.7261C119.68 11.0193 119.737 11.3814 119.737 11.8125C119.737 12.873 119.4 13.6511 118.728 14.1469C118.055 14.6383 117.038 14.8841 115.676 14.8841C115.038 14.8841 114.484 14.8237 114.014 14.703C113.548 14.5823 113.154 14.4055 112.83 14.1727C112.507 13.9356 112.25 13.6468 112.061 13.3062C111.875 12.9657 111.742 12.5755 111.66 12.1358L113.529 11.8513ZM121.407 14.6836V4.75107H123.341V14.6836H121.407ZM121.161 2.06748C121.161 1.90797 121.194 1.75924 121.258 1.62129C121.323 1.47903 121.409 1.35616 121.517 1.2527C121.629 1.14492 121.758 1.06086 121.905 1.00051C122.056 0.940152 122.215 0.909975 122.384 0.909975C122.552 0.909975 122.709 0.940152 122.856 1.00051C123.002 1.06086 123.132 1.14492 123.244 1.2527C123.356 1.35616 123.444 1.47903 123.509 1.62129C123.573 1.75924 123.606 1.90797 123.606 2.06748C123.606 2.22698 123.573 2.37787 123.509 2.52013C123.444 2.65808 123.356 2.77879 123.244 2.88225C123.132 2.98572 123.002 3.06763 122.856 3.12798C122.709 3.18833 122.552 3.21851 122.384 3.21851C122.215 3.21851 122.056 3.18833 121.905 3.12798C121.758 3.06763 121.629 2.98572 121.517 2.88225C121.409 2.77879 121.323 2.65808 121.258 2.52013C121.194 2.37787 121.161 2.22698 121.161 2.06748ZM127.342 4.75107V6.36769H127.465C127.582 6.10472 127.713 5.86546 127.86 5.64991C128.011 5.43436 128.198 5.25114 128.422 5.10026C128.646 4.94937 128.918 4.83298 129.237 4.75107C129.556 4.66485 129.942 4.62174 130.395 4.62174C130.985 4.62174 131.492 4.6864 131.914 4.81573C132.341 4.94506 132.692 5.1563 132.968 5.44945C133.244 5.7426 133.447 6.12843 133.576 6.60695C133.71 7.08547 133.777 7.67177 133.777 8.36584V14.6836H131.843V8.59863C131.843 8.15891 131.809 7.79247 131.74 7.49933C131.675 7.20187 131.561 6.96476 131.397 6.78801C131.237 6.60695 131.022 6.47978 130.75 6.40649C130.483 6.3332 130.145 6.29656 129.735 6.29656C129.317 6.29656 128.961 6.33751 128.668 6.41942C128.375 6.49702 128.136 6.63282 127.95 6.82681C127.765 7.01649 127.629 7.27084 127.543 7.58986C127.461 7.90887 127.42 8.30764 127.42 8.78616V14.6836H125.487V4.75107H127.342ZM135.914 14.6836V4.75107H137.848V14.6836H135.914ZM135.669 2.06748C135.669 1.90797 135.701 1.75924 135.766 1.62129C135.83 1.47903 135.917 1.35616 136.024 1.2527C136.136 1.14492 136.266 1.06086 136.412 1.00051C136.563 0.940152 136.723 0.909975 136.891 0.909975C137.059 0.909975 137.216 0.940152 137.363 1.00051C137.509 1.06086 137.639 1.14492 137.751 1.2527C137.863 1.35616 137.951 1.47903 138.016 1.62129C138.081 1.75924 138.113 1.90797 138.113 2.06748C138.113 2.22698 138.081 2.37787 138.016 2.52013C137.951 2.65808 137.863 2.77879 137.751 2.88225C137.639 2.98572 137.509 3.06763 137.363 3.12798C137.216 3.18833 137.059 3.21851 136.891 3.21851C136.723 3.21851 136.563 3.18833 136.412 3.12798C136.266 3.06763 136.136 2.98572 136.024 2.88225C135.917 2.77879 135.83 2.65808 135.766 2.52013C135.701 2.37787 135.669 2.22698 135.669 2.06748ZM140.66 4.75107V2.3714H142.593V4.75107H144.63V6.30303H142.593V11.7672C142.593 12.0086 142.6 12.2091 142.613 12.3686C142.63 12.5238 142.656 12.651 142.69 12.7501C142.725 12.8493 142.772 12.9226 142.833 12.97C142.893 13.0174 142.966 13.0519 143.052 13.0734C143.139 13.0907 143.242 13.0993 143.363 13.0993C143.483 13.095 143.624 13.0928 143.783 13.0928H144.63L144.954 14.8129H143.557C143.096 14.8129 142.684 14.7741 142.322 14.6965C141.964 14.6232 141.66 14.4874 141.41 14.2891C141.164 14.0908 140.977 13.8214 140.847 13.4808C140.722 13.1359 140.66 12.6984 140.66 12.1681V6.30303H139.205V4.75107H140.66ZM146.314 14.6836V4.75107H148.247V14.6836H146.314ZM146.068 2.06748C146.068 1.90797 146.1 1.75924 146.165 1.62129C146.23 1.47903 146.316 1.35616 146.424 1.2527C146.536 1.14492 146.665 1.06086 146.812 1.00051C146.963 0.940152 147.122 0.909975 147.29 0.909975C147.458 0.909975 147.616 0.940152 147.762 1.00051C147.909 1.06086 148.038 1.14492 148.15 1.2527C148.262 1.35616 148.351 1.47903 148.415 1.62129C148.48 1.75924 148.512 1.90797 148.512 2.06748C148.512 2.22698 148.48 2.37787 148.415 2.52013C148.351 2.65808 148.262 2.77879 148.15 2.88225C148.038 2.98572 147.909 3.06763 147.762 3.12798C147.616 3.18833 147.458 3.21851 147.29 3.21851C147.122 3.21851 146.963 3.18833 146.812 3.12798C146.665 3.06763 146.536 2.98572 146.424 2.88225C146.316 2.77879 146.23 2.65808 146.165 2.52013C146.1 2.37787 146.068 2.22698 146.068 2.06748ZM149.928 11.8771C149.928 11.446 149.977 11.0796 150.076 10.7778C150.18 10.4718 150.32 10.2153 150.497 10.0083C150.673 9.8014 150.882 9.63542 151.124 9.5104C151.37 9.38107 151.633 9.27977 151.913 9.20648C152.193 9.12888 152.488 9.06853 152.799 9.02542C153.109 8.98231 153.422 8.94351 153.736 8.90902C154.034 8.87453 154.301 8.85298 154.538 8.84436C154.78 8.83142 154.993 8.82064 155.178 8.81202C155.364 8.8034 155.523 8.78831 155.657 8.76676C155.795 8.7452 155.907 8.70856 155.993 8.65683C156.079 8.60078 156.142 8.52319 156.181 8.42403C156.224 8.32057 156.245 8.18262 156.245 8.01018V7.96491C156.245 7.60279 156.219 7.30749 156.168 7.079C156.12 6.84621 156.028 6.66515 155.89 6.53582C155.752 6.40218 155.56 6.31165 155.314 6.26423C155.068 6.21249 154.749 6.18663 154.357 6.18663C153.952 6.18663 153.616 6.22543 153.348 6.30303C153.085 6.38062 152.87 6.48409 152.702 6.61342C152.534 6.74275 152.4 6.89148 152.301 7.0596C152.206 7.22342 152.122 7.39371 152.049 7.57046L150.231 7.1566C150.395 6.70395 150.6 6.31811 150.846 5.9991C151.096 5.67578 151.389 5.41281 151.725 5.21019C152.066 5.00757 152.452 4.85884 152.883 4.764C153.318 4.66916 153.801 4.62174 154.331 4.62174C154.65 4.62174 154.965 4.63252 155.275 4.65407C155.59 4.67563 155.89 4.72736 156.174 4.80927C156.459 4.88686 156.724 5.00111 156.97 5.15199C157.215 5.30288 157.429 5.50765 157.61 5.76631C157.791 6.02066 157.931 6.33751 158.03 6.71688C158.134 7.09625 158.185 7.55321 158.185 8.08778V14.6836H156.297V13.3256H156.219C156.129 13.511 156.017 13.6985 155.883 13.8882C155.75 14.0736 155.571 14.2417 155.346 14.3926C155.127 14.5435 154.851 14.6663 154.519 14.7612C154.187 14.856 153.775 14.9035 153.284 14.9035C152.732 14.9035 152.247 14.856 151.829 14.7612C151.411 14.6663 151.059 14.5025 150.775 14.2697C150.494 14.0369 150.283 13.7266 150.141 13.3386C149.999 12.9506 149.928 12.4634 149.928 11.8771ZM153.704 13.3515C154.187 13.3515 154.59 13.3041 154.913 13.2092C155.241 13.1144 155.504 12.9743 155.702 12.7889C155.9 12.5992 156.041 12.3643 156.122 12.0841C156.209 11.8039 156.252 11.4762 156.252 11.1012V9.82079C156.204 9.86822 156.127 9.91133 156.019 9.95012C155.916 9.98892 155.791 10.0277 155.644 10.0665C155.502 10.101 155.349 10.1333 155.185 10.1635C155.021 10.1894 154.857 10.2153 154.693 10.2411C154.534 10.2627 154.381 10.2842 154.234 10.3058C154.088 10.323 153.963 10.3381 153.859 10.351C153.579 10.3898 153.314 10.4286 153.064 10.4674C152.818 10.5062 152.603 10.5752 152.417 10.6744C152.236 10.7735 152.092 10.9179 151.984 11.1076C151.876 11.2973 151.822 11.5624 151.822 11.903C151.822 12.222 151.852 12.4785 151.913 12.6725C151.977 12.8622 152.083 13.0088 152.23 13.1122C152.376 13.2114 152.57 13.2761 152.812 13.3062C153.053 13.3364 153.35 13.3515 153.704 13.3515ZM160.971 4.75107V2.3714H162.905V4.75107H164.942V6.30303H162.905V11.7672C162.905 12.0086 162.911 12.2091 162.924 12.3686C162.941 12.5238 162.967 12.651 163.002 12.7501C163.036 12.8493 163.084 12.9226 163.144 12.97C163.204 13.0174 163.278 13.0519 163.364 13.0734C163.45 13.0907 163.554 13.0993 163.674 13.0993C163.795 13.095 163.935 13.0928 164.095 13.0928H164.942L165.265 14.8129H163.868C163.407 14.8129 162.995 14.7741 162.633 14.6965C162.275 14.6232 161.972 14.4874 161.721 14.2891C161.476 14.0908 161.288 13.8214 161.159 13.4808C161.034 13.1359 160.971 12.6984 160.971 12.1681V6.30303H159.516V4.75107H160.971ZM166.625 14.6836V4.75107H168.559V14.6836H166.625ZM166.38 2.06748C166.38 1.90797 166.412 1.75924 166.477 1.62129C166.541 1.47903 166.627 1.35616 166.735 1.2527C166.847 1.14492 166.977 1.06086 167.123 1.00051C167.274 0.940152 167.434 0.909975 167.602 0.909975C167.77 0.909975 167.927 0.940152 168.074 1.00051C168.22 1.06086 168.35 1.14492 168.462 1.2527C168.574 1.35616 168.662 1.47903 168.727 1.62129C168.792 1.75924 168.824 1.90797 168.824 2.06748C168.824 2.22698 168.792 2.37787 168.727 2.52013C168.662 2.65808 168.574 2.77879 168.462 2.88225C168.35 2.98572 168.22 3.06763 168.074 3.12798C167.927 3.18833 167.77 3.21851 167.602 3.21851C167.434 3.21851 167.274 3.18833 167.123 3.12798C166.977 3.06763 166.847 2.98572 166.735 2.88225C166.627 2.77879 166.541 2.65808 166.477 2.52013C166.412 2.37787 166.38 2.22698 166.38 2.06748ZM171.998 4.75107L174.513 12.3945H174.617L177.126 4.75107H179.202L175.6 14.6836H173.531L169.922 4.75107H171.998ZM180.117 9.782C180.117 8.09209 180.497 6.80957 181.255 5.93444C182.014 5.0593 183.165 4.62174 184.709 4.62174C185.351 4.62174 185.941 4.69934 186.48 4.85453C187.019 5.00542 187.483 5.27054 187.871 5.64991C188.259 6.02928 188.56 6.54013 188.776 7.18247C188.996 7.82481 189.106 8.63527 189.106 9.61387V10.2993H182.044C182.057 10.8253 182.118 11.2779 182.225 11.6573C182.337 12.0323 182.506 12.3406 182.73 12.582C182.958 12.8234 183.247 13.0023 183.596 13.1187C183.945 13.2308 184.368 13.2868 184.864 13.2868C185.222 13.2868 185.525 13.2567 185.776 13.1963C186.026 13.1359 186.237 13.0476 186.409 12.9312C186.586 12.8105 186.733 12.6617 186.849 12.485C186.965 12.3082 187.067 12.1035 187.153 11.8707L188.983 12.2005C188.875 12.6057 188.713 12.9743 188.498 13.3062C188.287 13.6339 188.013 13.9162 187.677 14.1533C187.345 14.3861 186.944 14.565 186.474 14.6901C186.008 14.8194 185.465 14.8841 184.844 14.8841C184.03 14.8841 183.325 14.772 182.73 14.5478C182.139 14.3236 181.65 13.996 181.262 13.5649C180.874 13.1295 180.585 12.5949 180.395 11.9612C180.21 11.3275 180.117 10.6011 180.117 9.782ZM182.051 8.85082H187.211C187.211 8.38955 187.166 7.99293 187.075 7.66099C186.989 7.32904 186.847 7.05745 186.648 6.84621C186.45 6.63066 186.194 6.47331 185.879 6.37416C185.564 6.27069 185.178 6.21896 184.721 6.21896C184.247 6.21896 183.844 6.275 183.512 6.38709C183.185 6.49918 182.915 6.66515 182.704 6.88501C182.493 7.10487 182.335 7.37862 182.232 7.70625C182.133 8.03389 182.072 8.41541 182.051 8.85082ZM50.1073 32.6836V19.4402H54.5304C56.6428 19.4402 58.2098 19.9856 59.2315 21.0762C60.2532 22.1669 60.7641 23.8223 60.7641 26.0425C60.7641 27.1591 60.6369 28.1333 60.3826 28.9654C60.1282 29.7931 59.7381 30.4828 59.2121 31.0346C58.6905 31.5864 58.0288 32.0003 57.2269 32.2762C56.4294 32.5478 55.4853 32.6836 54.3946 32.6836H50.1073ZM52.1054 21.1862V30.9376H54.2847C55.121 30.9376 55.8258 30.845 56.3992 30.6596C56.9726 30.4742 57.436 30.1832 57.7895 29.7866C58.1473 29.39 58.4038 28.8835 58.559 28.267C58.7185 27.6505 58.7983 26.909 58.7983 26.0425C58.7983 25.1803 58.7207 24.4431 58.5655 23.831C58.4103 23.2145 58.1581 22.7123 57.8089 22.3243C57.464 21.932 57.0114 21.6453 56.4509 21.4642C55.8948 21.2789 55.2137 21.1862 54.4075 21.1862H52.1054ZM62.1922 27.782C62.1922 26.0921 62.5716 24.8096 63.3303 23.9344C64.089 23.0593 65.2401 22.6217 66.7834 22.6217C67.4257 22.6217 68.0163 22.6993 68.5552 22.8545C69.0941 23.0054 69.5575 23.2705 69.9455 23.6499C70.3335 24.0293 70.6353 24.5401 70.8508 25.1825C71.0707 25.8248 71.1806 26.6353 71.1806 27.6139V28.2993H64.1192C64.1321 28.8253 64.1925 29.2779 64.3003 29.6573C64.4124 30.0323 64.5805 30.3406 64.8047 30.582C65.0331 30.8234 65.322 31.0023 65.6712 31.1187C66.0204 31.2308 66.4428 31.2868 66.9386 31.2868C67.2964 31.2868 67.6003 31.2567 67.8504 31.1963C68.1004 31.1359 68.3117 31.0476 68.4841 30.9312C68.6608 30.8105 68.8074 30.6617 68.9238 30.485C69.0402 30.3082 69.1415 30.1035 69.2277 29.8707L71.0578 30.2005C70.95 30.6057 70.7883 30.9743 70.5728 31.3062C70.3615 31.6339 70.0878 31.9162 69.7515 32.1533C69.4196 32.3861 69.0187 32.565 68.5488 32.6901C68.0832 32.8194 67.54 32.8841 66.9192 32.8841C66.1044 32.8841 65.3996 32.772 64.8047 32.5478C64.2141 32.3236 63.7248 31.996 63.3368 31.5649C62.9488 31.1295 62.6599 30.5949 62.4703 29.9612C62.2849 29.3275 62.1922 28.6011 62.1922 27.782ZM64.1257 26.8508H69.2859C69.2859 26.3895 69.2407 25.9929 69.1501 25.661C69.0639 25.329 68.9217 25.0574 68.7234 24.8462C68.525 24.6307 68.2685 24.4733 67.9538 24.3742C67.6391 24.2707 67.2533 24.219 66.7963 24.219C66.3221 24.219 65.9191 24.275 65.5871 24.3871C65.2595 24.4992 64.99 24.6651 64.7788 24.885C64.5676 25.1049 64.4102 25.3786 64.3067 25.7063C64.2076 26.0339 64.1472 26.4154 64.1257 26.8508ZM74.8041 22.7511V28.836C74.8041 29.2542 74.8386 29.6055 74.9076 29.8901C74.9766 30.1746 75.0886 30.4031 75.2438 30.5755C75.4033 30.748 75.6124 30.8708 75.8711 30.9441C76.1297 31.0174 76.4488 31.054 76.8281 31.054C77.1816 31.054 77.4985 31.0109 77.7787 30.9247C78.0589 30.8342 78.296 30.6898 78.49 30.4915C78.6883 30.2931 78.8392 30.0366 78.9427 29.7219C79.0461 29.4029 79.0979 29.0171 79.0979 28.5644L79.1625 22.7511H81.1025V32.6836H79.2013V30.9635H79.0979C78.9815 31.2265 78.8457 31.4722 78.6905 31.7007C78.5396 31.9249 78.3499 32.121 78.1214 32.2891C77.8929 32.453 77.617 32.5823 77.2937 32.6771C76.9704 32.7677 76.5824 32.8129 76.1297 32.8129C75.5736 32.8129 75.0908 32.7483 74.6813 32.6189C74.2717 32.4896 73.9311 32.2784 73.6595 31.9852C73.3923 31.6921 73.194 31.3084 73.0646 30.8342C72.9353 30.3557 72.8706 29.7672 72.8706 29.0688V22.7511H74.8041ZM83.9112 22.7511V20.3714H85.8447V22.7511H87.8816V24.303H85.8447V29.7672C85.8447 30.0086 85.8511 30.2091 85.8641 30.3686C85.8813 30.5238 85.9072 30.651 85.9417 30.7501C85.9762 30.8493 86.0236 30.9226 86.0839 30.97C86.1443 31.0174 86.2176 31.0519 86.3038 31.0734C86.39 31.0907 86.4935 31.0993 86.6142 31.0993C86.7349 31.095 86.875 31.0928 87.0345 31.0928H87.8816L88.2049 32.8129H86.8082C86.3469 32.8129 85.9352 32.7741 85.5731 32.6965C85.2153 32.6232 84.9113 32.4874 84.6613 32.2891C84.4156 32.0908 84.228 31.8214 84.0987 31.4808C83.9737 31.1359 83.9112 30.6984 83.9112 30.1681V24.303H82.4562V22.7511H83.9112ZM90.9943 29.8513C91.0546 30.097 91.1301 30.3125 91.2206 30.4979C91.3111 30.679 91.4361 30.832 91.5956 30.957C91.7551 31.0777 91.9578 31.1704 92.2035 31.2351C92.4492 31.2955 92.7575 31.3256 93.1282 31.3256C93.5248 31.3256 93.8568 31.3062 94.124 31.2674C94.3913 31.2243 94.6047 31.151 94.7642 31.0476C94.928 30.9441 95.0444 30.804 95.1134 30.6273C95.1824 30.4505 95.2169 30.2263 95.2169 29.9547C95.2169 29.7176 95.1889 29.5301 95.1328 29.3922C95.0768 29.2499 94.9905 29.1356 94.8742 29.0494C94.7578 28.9632 94.6112 28.8964 94.4344 28.849C94.262 28.7972 94.0551 28.7455 93.8136 28.6938L92.1324 28.3252C91.6668 28.2217 91.2637 28.101 90.9231 27.9631C90.5826 27.8251 90.3002 27.6505 90.076 27.4393C89.8518 27.228 89.6859 26.9715 89.5781 26.6698C89.4703 26.3637 89.4164 25.9951 89.4164 25.564C89.4164 25.0424 89.4962 24.5962 89.6557 24.2254C89.8152 23.8547 90.0545 23.5508 90.3735 23.3137C90.6925 23.0765 91.0913 22.902 91.5698 22.7899C92.0483 22.6778 92.6087 22.6217 93.2511 22.6217C93.8675 22.6217 94.3913 22.6821 94.8224 22.8028C95.2535 22.9235 95.6135 23.0959 95.9023 23.3201C96.1955 23.5443 96.4283 23.8137 96.6007 24.1284C96.7731 24.4388 96.9089 24.788 97.0081 25.176L95.2557 25.4864C95.1996 25.3183 95.135 25.1544 95.0617 24.9949C94.9927 24.8354 94.8892 24.6932 94.7513 24.5682C94.6133 24.4431 94.428 24.344 94.1952 24.2707C93.9624 24.1931 93.6541 24.1543 93.2705 24.1543C92.917 24.1543 92.6173 24.1715 92.3716 24.206C92.1259 24.2405 91.9254 24.3052 91.7702 24.4C91.6194 24.4949 91.5116 24.6285 91.4469 24.8009C91.3822 24.9691 91.3499 25.1889 91.3499 25.4605C91.3499 25.7106 91.3779 25.9067 91.434 26.049C91.4943 26.1912 91.587 26.3055 91.712 26.3917C91.8414 26.4736 92.0052 26.5404 92.2035 26.5922C92.4018 26.6396 92.6367 26.6956 92.9083 26.7603L94.4862 27.1224C94.9431 27.2259 95.3397 27.3444 95.676 27.4781C96.0166 27.6074 96.2989 27.7734 96.5231 27.976C96.7516 28.1786 96.9219 28.4286 97.034 28.7261C97.146 29.0193 97.2021 29.3814 97.2021 29.8125C97.2021 30.873 96.8658 31.6511 96.1933 32.1469C95.5208 32.6383 94.5034 32.8841 93.1411 32.8841C92.5031 32.8841 91.9491 32.8237 91.4792 32.703C91.0137 32.5823 90.6192 32.4055 90.2959 32.1727C89.9726 31.9356 89.716 31.6468 89.5264 31.3062C89.341 30.9657 89.2074 30.5755 89.1254 30.1358L90.9943 29.8513ZM98.4265 27.7626C98.4265 26.922 98.5192 26.1826 98.7046 25.5446C98.8943 24.9023 99.1788 24.3655 99.5581 23.9344C99.9418 23.499 100.423 23.1714 101 22.9515C101.578 22.7317 102.257 22.6217 103.037 22.6217C103.684 22.6217 104.251 22.7015 104.738 22.861C105.225 23.0205 105.637 23.2468 105.973 23.54C106.313 23.8288 106.579 24.1802 106.768 24.594C106.962 25.0036 107.085 25.4584 107.137 25.9584H105.255C105.203 25.7257 105.132 25.5058 105.042 25.2989C104.956 25.0919 104.83 24.9109 104.667 24.7557C104.503 24.6005 104.292 24.4776 104.033 24.3871C103.779 24.2966 103.457 24.2513 103.069 24.2513C102.587 24.2513 102.173 24.3181 101.828 24.4518C101.487 24.5811 101.209 24.7859 100.994 25.0661C100.782 25.3463 100.627 25.7063 100.528 26.146C100.429 26.5814 100.379 27.1052 100.379 27.7173C100.379 28.3381 100.427 28.8727 100.522 29.321C100.621 29.7651 100.776 30.1315 100.987 30.4203C101.203 30.7048 101.481 30.9139 101.821 31.0476C102.162 31.1812 102.578 31.248 103.069 31.248C103.427 31.248 103.731 31.2092 103.981 31.1316C104.231 31.054 104.44 30.942 104.608 30.7954C104.777 30.6488 104.91 30.4699 105.009 30.2587C105.113 30.0474 105.195 29.8082 105.255 29.5409H107.137C107.085 30.0237 106.969 30.4699 106.788 30.8794C106.607 31.289 106.35 31.6425 106.018 31.9399C105.691 32.2374 105.281 32.4702 104.79 32.6383C104.302 32.8021 103.725 32.8841 103.057 32.8841C102.255 32.8841 101.563 32.7741 100.981 32.5543C100.399 32.3301 99.9181 32.0025 99.5387 31.5714C99.1594 31.1359 98.8792 30.5992 98.6981 29.9612C98.517 29.3232 98.4265 28.5903 98.4265 27.7626ZM110.657 19.4402V24.3677H110.78C110.896 24.1004 111.028 23.859 111.174 23.6434C111.321 23.4279 111.504 23.2447 111.724 23.0938C111.948 22.9429 112.22 22.8265 112.539 22.7446C112.862 22.6627 113.256 22.6217 113.722 22.6217C114.313 22.6217 114.821 22.7015 115.248 22.861C115.679 23.0162 116.033 23.2511 116.309 23.5658C116.589 23.8805 116.794 24.2707 116.923 24.7363C117.057 25.2019 117.123 25.7451 117.123 26.3658V32.6836H115.19V26.5986C115.19 26.1546 115.155 25.786 115.086 25.4929C115.022 25.1954 114.908 24.9583 114.744 24.7815C114.584 24.6048 114.367 24.4798 114.091 24.4065C113.819 24.3332 113.476 24.2966 113.062 24.2966C112.636 24.2966 112.271 24.3375 111.97 24.4194C111.672 24.497 111.426 24.6328 111.232 24.8268C111.043 25.0165 110.903 25.2708 110.812 25.5899C110.726 25.9089 110.683 26.3076 110.683 26.7862V32.6836H108.749V19.4402H110.657ZM121.182 32.6836H119.248V19.4402H121.182V32.6836ZM122.862 29.8771C122.862 29.446 122.912 29.0796 123.011 28.7778C123.114 28.4718 123.254 28.2153 123.431 28.0083C123.608 27.8014 123.817 27.6354 124.058 27.5104C124.304 27.3811 124.567 27.2798 124.847 27.2065C125.128 27.1289 125.423 27.0685 125.733 27.0254C126.044 26.9823 126.356 26.9435 126.671 26.909C126.968 26.8745 127.236 26.853 127.473 26.8444C127.714 26.8314 127.927 26.8206 128.113 26.812C128.298 26.8034 128.458 26.7883 128.591 26.7668C128.729 26.7452 128.841 26.7086 128.928 26.6568C129.014 26.6008 129.076 26.5232 129.115 26.424C129.158 26.3206 129.18 26.1826 129.18 26.0102V25.9649C129.18 25.6028 129.154 25.3075 129.102 25.079C129.055 24.8462 128.962 24.6651 128.824 24.5358C128.686 24.4022 128.494 24.3116 128.249 24.2642C128.003 24.2125 127.684 24.1866 127.292 24.1866C126.886 24.1866 126.55 24.2254 126.283 24.303C126.02 24.3806 125.804 24.4841 125.636 24.6134C125.468 24.7427 125.334 24.8915 125.235 25.0596C125.14 25.2234 125.056 25.3937 124.983 25.5705L123.166 25.1566C123.33 24.7039 123.535 24.3181 123.78 23.9991C124.03 23.6758 124.324 23.4128 124.66 23.2102C125 23.0076 125.386 22.8588 125.817 22.764C126.253 22.6692 126.736 22.6217 127.266 22.6217C127.585 22.6217 127.899 22.6325 128.21 22.6541C128.525 22.6756 128.824 22.7274 129.109 22.8093C129.393 22.8869 129.658 23.0011 129.904 23.152C130.15 23.3029 130.363 23.5076 130.544 23.7663C130.725 24.0207 130.865 24.3375 130.965 24.7169C131.068 25.0962 131.12 25.5532 131.12 26.0878V32.6836H129.232V31.3256H129.154C129.063 31.511 128.951 31.6985 128.818 31.8882C128.684 32.0736 128.505 32.2417 128.281 32.3926C128.061 32.5435 127.785 32.6663 127.453 32.7612C127.121 32.856 126.71 32.9035 126.218 32.9035C125.666 32.9035 125.181 32.856 124.763 32.7612C124.345 32.6663 123.994 32.5025 123.709 32.2697C123.429 32.0369 123.218 31.7266 123.075 31.3386C122.933 30.9506 122.862 30.4634 122.862 29.8771ZM126.639 31.3515C127.121 31.3515 127.524 31.3041 127.848 31.2092C128.175 31.1144 128.438 30.9743 128.637 30.7889C128.835 30.5992 128.975 30.3643 129.057 30.0841C129.143 29.8039 129.186 29.4762 129.186 29.1012V27.8208C129.139 27.8682 129.061 27.9113 128.954 27.9501C128.85 27.9889 128.725 28.0277 128.578 28.0665C128.436 28.101 128.283 28.1333 128.119 28.1635C127.956 28.1894 127.792 28.2153 127.628 28.2411C127.468 28.2627 127.315 28.2842 127.169 28.3058C127.022 28.323 126.897 28.3381 126.794 28.351C126.513 28.3898 126.248 28.4286 125.998 28.4674C125.753 28.5062 125.537 28.5752 125.352 28.6744C125.171 28.7735 125.026 28.9179 124.918 29.1076C124.811 29.2973 124.757 29.5624 124.757 29.903C124.757 30.222 124.787 30.4785 124.847 30.6725C124.912 30.8622 125.018 31.0088 125.164 31.1122C125.311 31.2114 125.505 31.2761 125.746 31.3062C125.988 31.3364 126.285 31.3515 126.639 31.3515ZM135.096 22.7511V24.3677H135.219C135.335 24.1047 135.466 23.8655 135.613 23.6499C135.764 23.4344 135.951 23.2511 136.176 23.1003C136.4 22.9494 136.671 22.833 136.99 22.7511C137.309 22.6648 137.695 22.6217 138.148 22.6217C138.738 22.6217 139.245 22.6864 139.668 22.8157C140.094 22.9451 140.446 23.1563 140.722 23.4494C140.997 23.7426 141.2 24.1284 141.329 24.607C141.463 25.0855 141.53 25.6718 141.53 26.3658V32.6836H139.596V26.5986C139.596 26.1589 139.562 25.7925 139.493 25.4993C139.428 25.2019 139.314 24.9648 139.15 24.788C138.991 24.607 138.775 24.4798 138.504 24.4065C138.236 24.3332 137.898 24.2966 137.488 24.2966C137.07 24.2966 136.714 24.3375 136.421 24.4194C136.128 24.497 135.889 24.6328 135.704 24.8268C135.518 25.0165 135.382 25.2708 135.296 25.5899C135.214 25.9089 135.173 26.3076 135.173 26.7862V32.6836H133.24V22.7511H135.096ZM147.405 22.6217C147.767 22.6217 148.08 22.6519 148.343 22.7123C148.61 22.7683 148.839 22.8438 149.028 22.9386C149.222 23.0334 149.384 23.1412 149.513 23.2619C149.643 23.3826 149.753 23.5076 149.843 23.637C149.938 23.7663 150.016 23.8935 150.076 24.0185C150.141 24.1435 150.201 24.2578 150.257 24.3612H150.373V19.4402H152.307V32.6836H150.419V31.1381H150.257C150.201 31.2416 150.138 31.358 150.07 31.4873C150.005 31.6123 149.925 31.7395 149.83 31.8688C149.735 31.9981 149.621 32.1232 149.488 32.2439C149.358 32.3646 149.197 32.4724 149.003 32.5672C148.809 32.662 148.58 32.7375 148.317 32.7935C148.054 32.8496 147.744 32.8776 147.386 32.8776C146.705 32.8776 146.106 32.7763 145.588 32.5737C145.071 32.3667 144.638 32.0542 144.288 31.636C143.939 31.2135 143.676 30.679 143.5 30.0323C143.323 29.3857 143.234 28.6205 143.234 27.7367C143.234 26.8487 143.323 26.0835 143.5 25.4411C143.681 24.7988 143.946 24.2685 144.295 23.8504C144.648 23.4322 145.084 23.124 145.601 22.9257C146.123 22.723 146.724 22.6217 147.405 22.6217ZM145.187 27.7173C145.187 28.295 145.228 28.8037 145.31 29.2434C145.392 29.6788 145.532 30.0453 145.73 30.3427C145.933 30.6359 146.203 30.8579 146.539 31.0088C146.879 31.1553 147.306 31.2286 147.819 31.2286C148.315 31.2286 148.727 31.1446 149.054 30.9764C149.382 30.804 149.643 30.5647 149.837 30.2587C150.035 29.9483 150.173 29.5775 150.251 29.1464C150.332 28.7153 150.373 28.239 150.373 27.7173C150.373 27.2 150.335 26.7301 150.257 26.3076C150.179 25.8808 150.044 25.5166 149.85 25.2148C149.656 24.913 149.395 24.6802 149.067 24.5164C148.74 24.3483 148.324 24.2642 147.819 24.2642C147.302 24.2642 146.873 24.3375 146.532 24.4841C146.192 24.6264 145.922 24.8419 145.724 25.1307C145.526 25.4196 145.386 25.7795 145.304 26.2106C145.226 26.6417 145.187 27.144 145.187 27.7173Z" fill="#1A1A1A"></path></svg>